<svg width="14" height="14" viewBox="0 0 14 14" fill="none" xmlns="http://www.w3.org/2000/svg">
<g clip-path="url(#clip0_1222_37217)">
<path d="M3.5 0.5H1.5C0.947715 0.5 0.5 0.947715 0.5 1.5V3.5C0.5 4.05228 0.947715 4.5 1.5 4.5H3.5C4.05228 4.5 4.5 4.05228 4.5 3.5V1.5C4.5 0.947715 4.05228 0.5 3.5 0.5Z" stroke="black" stroke-linecap="round" stroke-linejoin="round"/>
<path d="M3.5 9.5H1.5C0.947715 9.5 0.5 9.94772 0.5 10.5V12.5C0.5 13.0523 0.947715 13.5 1.5 13.5H3.5C4.05228 13.5 4.5 13.0523 4.5 12.5V10.5C4.5 9.94772 4.05228 9.5 3.5 9.5Z" stroke="black" stroke-linecap="round" stroke-linejoin="round"/>
<path d="M12.5 9.5H10.5C9.94772 9.5 9.5 9.94772 9.5 10.5V12.5C9.5 13.0523 9.94772 13.5 10.5 13.5H12.5C13.0523 13.5 13.5 13.0523 13.5 12.5V10.5C13.5 9.94772 13.0523 9.5 12.5 9.5Z" stroke="black" stroke-linecap="round" stroke-linejoin="round"/>
<path d="M2.5 9.5V4.5" stroke="black" stroke-linecap="round" stroke-linejoin="round"/>
<path d="M11.5 9.5V4.5C11.5 3.96957 11.2893 3.46086 10.9142 3.08579C10.5391 2.71071 10.0304 2.5 9.5 2.5H7" stroke="black" stroke-linecap="round" stroke-linejoin="round"/>
<path d="M9 0.5L7 2.5L9 4.5" stroke="black" stroke-linecap="round" stroke-linejoin="round"/>
</g>
<defs>
<clipPath id="clip0_1222_37217">
<rect width="14" height="14" fill="white"/>
</clipPath>
</defs>
</svg>
