<?xml version="1.0" standalone="no"?>
<!DOCTYPE svg PUBLIC "-//W3C//DTD SVG 20010904//EN"
 "http://www.w3.org/TR/2001/REC-SVG-20010904/DTD/svg10.dtd">
<svg version="1.0" xmlns="http://www.w3.org/2000/svg"
 width="504.000000pt" height="495.000000pt" viewBox="0 0 504.000000 495.000000"
 preserveAspectRatio="xMidYMid meet">

<g transform="translate(0.000000,495.000000) scale(0.100000,-0.100000)"
fill="#000000" stroke="none">
<path d="M1574 4617 c-29 -26 -37 -42 -41 -80 -10 -89 35 -147 116 -147 27 1
54 7 66 17 l20 16 -20 -8 c-54 -21 -84 -18 -115 13 -27 27 -30 37 -30 92 0 55
3 65 29 91 18 17 40 29 56 29 16 0 38 -12 56 -29 l29 -29 0 35 c0 28 -3 33
-13 25 -8 -7 -18 -7 -27 -2 -8 6 -32 10 -53 10 -28 0 -46 -8 -73 -33z"/>
<path d="M1824 4617 c-29 -26 -37 -42 -41 -80 -10 -90 35 -147 117 -147 36 0
53 6 74 25 90 84 40 235 -78 235 -27 0 -45 -8 -72 -33z m122 0 c22 -19 28 -34
32 -80 6 -70 -10 -111 -49 -127 -66 -28 -109 17 -109 115 0 49 4 60 29 86 36
35 61 37 97 6z"/>
<path d="M2654 4617 c-29 -26 -37 -42 -41 -80 -10 -89 35 -147 116 -147 27 1
54 7 66 17 l20 16 -20 -8 c-54 -21 -84 -18 -115 13 -27 27 -30 37 -30 92 0 55
3 65 29 91 18 17 40 29 56 29 16 0 38 -12 56 -29 l29 -29 0 35 c0 28 -3 33
-13 25 -8 -7 -18 -7 -27 -2 -8 6 -32 10 -53 10 -28 0 -46 -8 -73 -33z"/>
<path d="M3161 4624 c-61 -51 -65 -148 -10 -204 25 -25 39 -30 78 -30 77 0
121 48 121 132 0 106 -112 167 -189 102z m102 5 c34 -15 47 -49 47 -120 0 -50
-4 -64 -25 -84 -31 -32 -66 -32 -102 -1 -26 22 -28 30 -28 96 0 66 2 74 28 96
31 27 45 29 80 13z"/>
<path d="M3410 4628 c-32 -34 -22 -67 30 -104 25 -18 56 -42 68 -54 22 -19 22
-23 9 -43 -8 -12 -24 -23 -36 -25 -28 -4 -69 22 -81 51 -7 18 -9 15 -9 -18
l-1 -40 63 -3 c75 -4 100 15 95 69 -2 28 -12 40 -63 74 -66 45 -80 76 -45 95
27 14 54 5 80 -27 l20 -26 0 30 c0 27 -4 31 -37 37 -60 9 -71 7 -93 -16z"/>
<path d="M3630 4630 c-41 -41 -22 -85 59 -131 49 -27 64 -65 36 -86 -38 -27
-99 -5 -108 40 -2 12 -5 5 -6 -18 l-1 -40 59 -3 c50 -3 63 0 80 17 42 42 24
86 -52 129 -62 35 -75 57 -51 83 23 26 50 24 79 -6 l25 -24 0 23 c0 18 -7 25
-31 30 -51 10 -68 7 -89 -14z"/>
<path d="M1318 4528 c3 -98 1 -114 -14 -125 -15 -11 -3 -13 73 -13 93 0 102 4
117 45 7 18 5 18 -17 -3 -17 -16 -35 -22 -70 -22 l-47 0 0 56 0 56 45 -4 c35
-2 45 0 45 12 0 12 -10 14 -45 12 l-45 -4 0 46 0 46 44 0 c27 0 51 -6 60 -16
15 -14 16 -14 16 5 0 20 -6 21 -82 21 l-83 0 3 -112z"/>
<path d="M2068 4633 c8 -3 12 -36 12 -113 0 -93 -3 -110 -17 -119 -13 -8 7
-10 75 -11 90 0 93 1 102 26 14 35 13 37 -11 13 -16 -16 -30 -19 -67 -17 l-47
3 -3 99 c-2 64 1 103 9 112 9 12 5 14 -27 13 -22 0 -33 -3 -26 -6z"/>
<path d="M2308 4528 c3 -98 1 -114 -14 -125 -15 -11 -3 -13 73 -13 93 0 102 4
117 45 7 18 5 18 -17 -3 -17 -16 -35 -22 -70 -22 l-47 0 0 56 0 56 45 -4 c35
-2 45 0 45 12 0 12 -10 14 -45 12 l-45 -4 0 46 0 46 44 0 c27 0 51 -6 60 -16
15 -14 16 -14 16 5 0 20 -6 21 -82 21 l-83 0 3 -112z"/>
<path d="M2878 4628 c13 -13 17 -195 4 -214 -4 -6 -14 -14 -22 -17 -8 -3 10
-6 40 -6 42 0 51 2 38 10 -13 7 -18 23 -18 54 0 64 26 60 79 -10 31 -41 48
-55 67 -55 l26 0 -31 26 c-17 14 -40 39 -52 55 l-21 30 26 20 c34 27 36 81 4
103 -28 20 -159 23 -140 4z m112 -18 c11 -11 20 -27 20 -35 0 -23 -37 -55 -65
-55 -24 0 -25 3 -25 55 0 52 1 55 25 55 14 0 34 -9 45 -20z"/>
<path d="M1709 4240 c-94 -28 -145 -140 -108 -237 51 -136 254 -150 320 -22
27 54 24 154 -7 196 -41 57 -133 85 -205 63z m110 -29 c11 -11 24 -37 30 -58
22 -79 8 -186 -30 -224 -27 -27 -80 -25 -107 4 -57 61 -47 250 15 286 29 17
71 13 92 -8z"/>
<path d="M3685 4238 c-51 -18 -86 -49 -106 -92 -65 -142 44 -272 209 -251 90
11 102 20 102 77 0 41 3 50 23 58 16 6 -2 9 -63 9 -62 0 -79 -3 -62 -10 21 -8
23 -14 20 -61 l-3 -53 -39 -3 c-80 -7 -116 41 -116 152 0 109 37 166 108 166
45 0 89 -24 107 -60 9 -17 18 -30 20 -30 3 0 5 26 5 57 0 49 -2 54 -13 39 -12
-17 -16 -17 -60 -2 -54 18 -89 19 -132 4z"/>
<path d="M828 4230 c21 -9 22 -13 22 -160 0 -147 -1 -151 -22 -160 -17 -6 1
-9 62 -9 62 0 79 3 62 9 -21 9 -23 15 -20 75 2 36 7 66 13 67 5 1 31 -27 58
-62 46 -59 48 -65 31 -77 -15 -11 6 -13 132 -12 100 0 142 3 126 9 -12 5 -25
16 -28 23 -2 7 -3 65 -2 128 l3 114 115 -143 115 -142 5 166 c5 155 6 168 25
175 14 5 5 8 -29 8 -45 1 -48 0 -30 -13 16 -12 20 -29 23 -100 2 -52 -1 -86
-7 -86 -5 0 -45 45 -88 100 l-79 100 -59 0 -59 0 27 -21 c26 -20 26 -22 26
-153 0 -89 -4 -136 -12 -144 -18 -18 -63 -15 -85 6 -28 24 -143 169 -143 179
0 10 109 98 146 118 28 14 27 15 -41 14 -52 0 -64 -3 -48 -9 14 -6 21 -15 17
-24 -6 -15 -137 -126 -148 -126 -4 0 -6 32 -6 70 0 64 2 72 23 80 16 6 -2 9
-63 9 -61 0 -79 -3 -62 -9z"/>
<path d="M1978 4231 c13 -8 142 -311 142 -332 0 -27 21 10 60 106 24 58 47
102 50 98 4 -5 24 -54 45 -111 28 -74 41 -99 47 -88 5 9 33 82 64 163 30 82
62 154 71 161 14 10 10 12 -27 12 -40 0 -42 -1 -25 -14 18 -13 18 -16 -10 -92
-43 -122 -45 -124 -62 -83 -8 19 -26 65 -39 102 l-23 68 22 9 c15 6 -4 9 -63
8 -47 0 -77 -2 -68 -5 9 -2 26 -24 37 -48 l21 -45 -26 -66 c-15 -36 -30 -62
-34 -57 -4 4 -24 51 -45 103 -34 89 -36 95 -19 107 15 11 7 13 -57 13 -43 0
-69 -4 -61 -9z"/>
<path d="M2508 4230 c21 -9 22 -13 22 -160 0 -147 -1 -151 -22 -160 -15 -6 28
-8 127 -7 l150 2 6 50 c3 28 5 51 3 53 -1 2 -10 -13 -19 -33 -23 -46 -44 -57
-108 -53 l-52 3 -3 130 c-3 152 0 172 31 178 12 2 -18 5 -68 5 -63 1 -83 -2
-67 -8z"/>
<path d="M2845 4233 c11 -3 23 -10 27 -17 4 -6 8 -72 8 -146 0 -74 -4 -140 -8
-146 -4 -7 -16 -14 -27 -17 -11 -2 46 -5 126 -6 l147 -1 7 46 c3 25 4 48 1 52
-3 3 -6 -2 -6 -10 0 -9 -14 -28 -31 -42 -24 -20 -41 -26 -79 -26 -56 0 -60 6
-60 86 0 51 1 54 25 54 18 0 30 -10 44 -37 l20 -38 0 85 0 85 -17 -35 c-12
-25 -25 -36 -45 -38 l-27 -3 0 70 0 71 46 0 c55 0 79 -12 98 -48 l15 -27 1 48
0 47 -142 -1 c-79 -1 -134 -4 -123 -6z"/>
<path d="M3188 4230 c21 -9 22 -13 22 -160 0 -147 -1 -151 -22 -160 -16 -7 11
-9 92 -7 129 2 168 17 204 77 41 71 15 191 -52 232 -30 19 -53 22 -151 25 -82
2 -109 0 -93 -7z m196 -40 c43 -52 48 -186 7 -240 -14 -19 -27 -25 -57 -25
l-39 0 -3 148 -3 147 35 0 c26 0 40 -7 60 -30z"/>
<path d="M3968 4230 c21 -9 22 -13 22 -160 0 -147 -1 -151 -22 -160 -16 -6 26
-9 125 -9 l147 -1 0 28 c0 15 3 38 6 52 5 22 4 22 -14 -7 -28 -43 -54 -55
-110 -51 l-47 3 -3 68 c-3 60 -1 67 16 67 19 0 45 -23 55 -50 3 -8 5 19 5 60
0 41 -2 68 -5 60 -10 -26 -36 -50 -55 -50 -16 0 -18 9 -18 70 l0 70 48 0 c50
0 72 -11 90 -45 10 -17 11 -14 12 23 l0 42 -137 -1 c-93 0 -131 -3 -115 -9z"/>
<path d="M770 3651 l0 -88 93 -5 c127 -7 188 -39 231 -125 14 -29 16 -110 16
-772 0 -763 3 -841 41 -956 33 -100 104 -235 168 -320 124 -165 336 -353 508
-453 37 -22 213 -114 391 -206 l324 -167 31 19 c18 11 158 83 312 162 318 162
342 175 445 244 168 111 348 283 448 429 70 101 134 240 164 352 l23 90 -3
748 c-3 856 -6 825 74 895 50 45 106 62 199 62 l55 0 0 90 0 90 -1760 0 -1760
0 0 -89z m3470 -6 l0 -35 -48 0 c-110 0 -207 -55 -255 -144 -22 -41 -22 -43
-27 -841 -6 -881 -2 -826 -71 -990 -81 -195 -307 -450 -529 -597 -106 -70
-744 -408 -771 -408 -22 0 -654 329 -744 388 -307 199 -530 476 -602 749 l-26
98 3 752 c2 864 5 829 -79 913 -55 55 -120 80 -208 80 l-53 0 0 35 0 35 1705
0 1705 0 0 -35z"/>
<path d="M1240 3550 c0 -6 10 -30 23 -53 l22 -42 6 -800 c6 -896 2 -854 80
-1009 104 -206 290 -399 524 -543 44 -27 196 -109 338 -182 l257 -132 0 240 0
240 -72 23 c-108 34 -281 32 -393 -5 -91 -30 -95 -31 -95 -16 0 16 80 47 166
65 98 20 242 14 332 -14 60 -19 62 -19 62 -1 0 14 -17 24 -72 41 -61 19 -95
23 -208 23 -131 0 -186 -10 -295 -51 -8 -3 -15 -2 -15 4 0 14 111 49 200 63
95 15 237 6 320 -20 35 -11 66 -18 68 -16 14 13 -14 36 -60 50 -147 44 -331
41 -477 -8 -76 -25 -110 -20 -38 6 111 40 122 42 292 42 146 -1 178 -4 228
-22 53 -19 57 -19 57 -3 0 46 -222 87 -377 69 -89 -10 -220 -43 -238 -60 -5
-5 -13 -9 -17 -9 -5 0 -7 192 -6 427 l3 427 90 29 c149 48 372 49 508 1 l37
-13 0 629 0 630 -625 0 c-426 0 -625 -3 -625 -10z m876 -396 c148 -54 197 -74
192 -79 -4 -4 -190 -74 -334 -125 l-81 -29 -173 64 c-95 36 -175 65 -177 65
-2 0 -3 -34 -3 -75 0 -69 -9 -91 -25 -65 -5 8 -11 7 -21 -1 -13 -10 -14 1 -12
81 l3 92 205 78 205 77 50 -19 c28 -11 105 -40 171 -64z m-325 -219 c50 -19
97 -35 104 -35 7 0 54 16 104 35 49 19 95 35 101 35 6 0 10 -29 10 -73 0 -70
-1 -74 -27 -86 -70 -32 -307 -32 -378 1 -23 10 -25 16 -25 85 0 44 4 73 10 73
6 0 52 -16 101 -35z"/>
<path d="M2577 3553 c-7 -6 -10 -1253 -4 -1253 2 0 39 9 83 21 153 41 372 26
517 -35 l37 -15 0 -422 c0 -397 -1 -421 -17 -414 -186 71 -394 83 -570 30 -42
-12 -53 -20 -53 -36 0 -16 4 -19 18 -14 114 44 297 56 432 27 96 -20 177 -49
167 -59 -3 -3 -32 4 -65 15 -97 34 -186 45 -312 39 -133 -6 -233 -32 -238 -61
-3 -16 0 -18 19 -12 174 50 372 48 516 -6 77 -28 65 -39 -15 -12 -142 48 -326
51 -470 9 -41 -13 -52 -20 -52 -37 0 -16 4 -19 23 -14 113 32 158 38 267 33
142 -6 284 -46 266 -75 -4 -6 -31 -1 -75 14 -128 44 -318 47 -429 6 l-47 -18
-3 -237 c-1 -160 1 -237 8 -237 15 0 490 245 580 299 117 70 216 147 310 240
187 187 281 356 311 562 8 59 10 271 6 782 -6 723 -4 764 34 839 11 21 19 40
19 43 0 7 -1255 6 -1263 -2z m695 -173 c16 0 19 -6 16 -32 l-3 -33 -53 3 -53
4 7 -39 c4 -21 9 -41 11 -45 2 -5 58 -8 124 -8 109 0 120 -2 117 -17 -2 -12
-16 -20 -43 -24 -26 -4 -2 -7 65 -8 l105 -1 -3 -255 -4 -255 30 0 c20 0 31 -6
34 -17 11 -44 18 -43 -453 -43 l-449 0 0 30 c0 27 3 30 31 30 l30 0 -2 253 -2
252 104 5 c66 3 90 7 64 10 -28 4 -41 10 -43 23 -3 15 8 17 117 17 66 0 122 4
125 9 3 5 9 41 12 81 l7 72 45 -6 c25 -3 53 -6 64 -6z"/>
<path d="M3020 3120 l0 -40 150 0 150 0 0 40 0 40 -150 0 -150 0 0 -40z"/>
<path d="M2830 3020 l0 -50 50 0 50 0 0 50 0 50 -50 0 -50 0 0 -50z"/>
<path d="M3410 3020 l0 -50 50 0 50 0 0 50 0 50 -50 0 -50 0 0 -50z"/>
<path d="M3040 3000 l0 -50 55 0 55 0 0 50 0 50 -55 0 -55 0 0 -50z"/>
<path d="M3197 3043 c-4 -3 -7 -26 -7 -50 l0 -43 50 0 50 0 0 50 0 50 -43 0
c-24 0 -47 -3 -50 -7z"/>
<path d="M2830 2900 l0 -50 50 0 50 0 0 50 0 50 -50 0 -50 0 0 -50z"/>
<path d="M3410 2900 l0 -50 50 0 50 0 0 50 0 50 -50 0 -50 0 0 -50z"/>
<path d="M3040 2870 l0 -50 55 0 55 0 0 50 0 50 -55 0 -55 0 0 -50z"/>
<path d="M3190 2870 l0 -50 50 0 50 0 0 50 0 50 -50 0 -50 0 0 -50z"/>
<path d="M2830 2770 l0 -50 50 0 50 0 0 50 0 50 -50 0 -50 0 0 -50z"/>
<path d="M3410 2770 l0 -50 50 0 50 0 0 50 0 50 -50 0 -50 0 0 -50z"/>
<path d="M3047 2793 c-4 -3 -7 -26 -7 -50 l0 -43 55 0 55 0 0 50 0 50 -48 0
c-27 0 -52 -3 -55 -7z"/>
<path d="M3197 2793 c-4 -3 -7 -26 -7 -50 l0 -43 50 0 50 0 0 50 0 50 -43 0
c-24 0 -47 -3 -50 -7z"/>
<path d="M2005 2301 c-38 -11 -82 -24 -97 -30 l-28 -11 0 -390 c0 -214 3 -390
8 -390 4 0 36 10 72 21 46 15 102 23 191 26 141 6 233 -6 321 -41 l56 -23 69
23 c92 31 231 48 328 40 71 -5 188 -30 238 -51 16 -7 17 16 17 387 l0 395 -72
22 c-172 50 -342 50 -496 -2 l-67 -22 -3 -77 c-2 -43 -7 -78 -12 -78 -5 0 -10
37 -12 82 l-3 82 -75 24 c-106 35 -332 41 -435 13z m604 -391 c34 -80 68 -150
76 -156 27 -20 16 -24 -62 -24 -58 1 -73 3 -60 11 20 12 21 28 5 64 -10 22
-17 25 -64 25 -42 0 -55 -4 -64 -19 -16 -31 -12 -57 13 -69 18 -9 12 -11 -38
-11 -52 0 -58 1 -43 13 17 12 40 58 128 254 18 40 37 69 41 65 4 -4 35 -73 68
-153z m358 149 c36 -10 47 -9 53 1 5 8 9 -10 11 -44 2 -31 1 -56 -3 -56 -5 0
-8 4 -8 9 0 20 -52 70 -80 76 -38 8 -85 -17 -106 -57 -12 -23 -15 -51 -12
-109 3 -65 7 -82 27 -103 42 -45 106 -42 160 7 22 21 23 21 20 2 -3 -12 -23
-30 -49 -43 -103 -53 -232 7 -247 116 -12 89 24 158 102 193 47 22 70 23 132
8z m-702 -13 c61 -26 71 -73 24 -117 -17 -16 -25 -29 -18 -29 26 0 59 -43 59
-77 0 -67 -59 -93 -210 -93 -83 0 -92 2 -70 13 25 13 25 13 25 152 0 139 0
139 -25 152 -22 11 -12 13 78 13 66 0 115 -5 137 -14z"/>
<path d="M2482 1906 c-12 -27 -20 -51 -18 -53 2 -2 22 -3 45 -1 l41 3 -24 50
-23 50 -21 -49z"/>
<path d="M2160 1975 c0 -64 1 -66 23 -60 35 11 59 45 52 74 -8 33 -14 38 -47
46 l-28 7 0 -67z"/>
<path d="M2159 1848 c-2 -87 5 -104 40 -93 70 22 57 135 -15 135 -21 0 -24 -4
-25 -42z"/>
<path d="M2515 458 l-19 -58 -59 0 -60 0 44 -31 c24 -18 46 -33 48 -35 4 -4
-12 -64 -26 -102 -4 -9 11 -3 40 16 25 18 49 32 54 32 4 0 26 -14 47 -30 22
-17 41 -29 42 -27 2 2 -4 27 -13 55 -16 51 -16 53 3 66 10 8 30 23 44 35 l25
20 -57 1 -56 0 -20 58 -19 57 -18 -57z"/>
</g>
</svg>
